<svg xmlns="http://www.w3.org/2000/svg" viewBox="0 0 64 64"><path fill="none" stroke="#bbbdbf" stroke-linecap="round" stroke-linejoin="round" stroke-width="2" d="M49 25.27S59.2 22.1 57.79 30A12.12 12.12 0 0 1 49 39.5M15 25.27S4.8 22.1 6.21 30A12.12 12.12 0 0 0 15 39.5"/><path fill="#95deeb" d="M49,40.66s-4.16,3.75-17,3.75-17-3.75-17-3.75v-17a36.15,36.15,0,0,1,17-4.08,36.15,36.15,0,0,1,17,4.08Z"/><path fill="#65bfc4" d="M49 30.5s-4.16-2-17-2-17 2-17 2V26.58A64.69 64.69 0 0 1 32 24.5a64.69 64.69 0 0 1 17 2.08zM15 33.5s4.16 2 17 2 17-2 17-2v3.92A64.69 64.69 0 0 1 32 39.5a64.69 64.69 0 0 1-17-2.08z"/><path fill="#65bfc4" d="M20.29,21.44A29.11,29.11,0,0,0,15,23.66v17s4.16,3.75,17,3.75c.55,0,1.07,0,1.59,0C23.05,35.56,20.66,26.63,20.29,21.44Z"/><path fill="#3b9391" d="M25.3 35.29C17.67 34.78 15 33.5 15 33.5v3.92a61.5 61.5 0 0 0 13.46 2A38.24 38.24 0 0 1 25.3 35.29zM20.89 25.34A48 48 0 0 0 15 26.58V30.5s1.89-.9 7-1.49A28 28 0 0 1 20.89 25.34z"/><rect width="64" height="64" fill="none"/></svg>