<svg xmlns="http://www.w3.org/2000/svg" viewBox="0 0 506.94 491.92"  xmlns:v="https://vecta.io/nano"><path d="M434.45 490.42l-357.76-.85c-3.36-.17-12.83-5.63-12.83-12.23l-1.11-376.08c0-6.627 5.373-12 12-12h360.7c6.627 0 12 5.373 12 12l-.57 376.9c.04-.91-13.43 12.26-12.43 12.26z" fill="#fff"/><path d="M438.05 65.47H68.11c-9.389 0-17-7.611-17-17V20.12c0-9.35 7.52-17.89 16.87-17.89h370c9.35 0 17.73 8.48 17.73 17.83l.31 28.48c.06 9.34-8.57 16.93-17.97 16.93z" fill="#4c3118"/><rect x="72.37" y="99.29" width="358.88" height="381.1" rx="12" fill="#d4e8e7"/><path d="M354.63 99.29H97.23c-11.071.033-20.037 8.999-20.07 20.07v335.87c.033 11.071 8.999 20.037 20.07 20.07h257.4c11.071-.033 20.037-8.999 20.07-20.07V119.36c-.033-11.071-8.999-20.037-20.07-20.07zM332.8 438.14c-.033 11.071-8.999 20.037-20.07 20.07h-173.6c-11.071-.033-20.037-8.999-20.07-20.07V172.31c.033-11.071 8.999-20.037 20.07-20.07h173.6c11.071.033 20.037 8.999 20.07 20.07z" fill="#e2eeee"/><ellipse cx="124.84" cy="189.21" rx="61.35" ry="42.01" transform="matrix(.4 -.92 .92 .4 -99.06 217.86)" fill="#fff"/><g fill="#ad8e74"><path d="M52.69 56.19L1.5 151.52l133.95-26.25-2.59 56.29 121.26-75.26 120.93 74.79-2.13-56.21 133 27.46-50.47-95.46-14.39 9.75H67.3s-10.69-4.61-14.61-10.44z"/><path d="M52.13 55.64l-50.75 96.1 133.48-27-2.6 56.29 121.26-75.25 120.93 74.76-2.08-56.26 133 27.46-50.44-95.44-14.39 9.74H66.74s-10.69-4.58-14.61-10.4z"/></g><path d="M448.58 67.6H58.77a7.46 7.46 0 0 1-7.45-7.45h0a7.45 7.45 0 0 1 7.45-7.45h389.81c3.1 0 5.87 0 6.9.42.9.65-.16 2.56.49 4 1.95 4.37-1.94 10.32-7.39 10.48z" fill="#89705d"/><path d="M67.45 65.47c-1.22-.21-8.92-1.18-13.06-7-3.23-3.22-4-9.26-3.5-9.56s4.46-.39 10.66-.31h384.59c2.17.11 8.16 0 9.68.13.63 2-.77 8.48-4.55 11.69a26.11 26.11 0 0 1-14.62 5.46c-46.01-.09-367.15.77-369.2-.41z" fill="#2b1c11"/><path d="M69.54 1.34h371s18.89 8 6.79 8H62.71c-18.5.54 6.83-8 6.83-8z" fill="#b68767"/><path d="M131.45 181.54l121.89-84.81 121.41 84-121.08-74.85z" fill="#89705d"/><path d="M447.12 141.02l-73.35-15.1 3.35 59.75-123.53-77.9-123.68 77.73 3.42-59.81-70.31 14.97.08-1.76 71.66-14.72-3.17 57.76 122.04-76.83 121.35 76.25-2.55-57.17 74.35 14.71.34 2.12z" fill="#b7b7b7"/><g fill="none" stroke="#231f20" stroke-miterlimit="10"><path d="M51.89 55.72a20 20 0 0 1-.77-5.51V21.57c.033-11.071 8.999-20.037 20.07-20.07h364.56c11.071.033 20.037 8.999 20.07 20.07v28.64a20.16 20.16 0 0 1-.77 5.52" stroke-width="3"/><path d="M455.29 54.46c-2.41 6.55-10.17 11.42-19.3 11.42H71.45c-9.12 0-16.88-4.83-19.29-11.39"/><path d="M447.45 139.56v330.79c-.033 11.044-8.957 19.999-20 20.07H82.82c-11.071-.033-20.037-8.999-20.07-20.07V138.88" stroke-width="3"/></g><rect x="173.51" y="202.51" width="21.27" height="125.44" rx="6.36" fill="#231f20"/><g fill="none" stroke="#231f20" stroke-linecap="round" stroke-linejoin="round"><path d="M62.75 138.9L1.5 151.16l50.39-95.44" stroke-width="3"/><path d="M253.59 105.66l-121.71 76.05 3.09-57.57-72.1 14.44" stroke-width="2"/><path d="M447.49 139.56l57.95 11.6-50.39-95.44" stroke-width="3"/><path d="M253.59 105.66l121.71 76.05-3.1-57.57 75.41 15.1" stroke-width="2"/></g><rect x="315.18" y="202.51" width="21.27" height="125.44" rx="6.36" fill="#231f20"/><path d="M116.45 346.82c0 68.51 71.28 124 159.38 124" fill="none" stroke="#231f20" stroke-linecap="round" stroke-linejoin="round" stroke-width="4"/></svg>