<svg xmlns="http://www.w3.org/2000/svg" xmlns:svg="http://www.w3.org/2000/svg" id="svg6485" width="16" height="16" version="1.1" viewBox="0 0 16 16"><g id="layer1" transform="translate(0,-1036.3622)"><g id="g9574" transform="translate(-175.95898,-47.5284)"><path id="path5359" d="m 183.95898,1083.8906 c -4.41235,0 -8,3.5877 -8,8 0,4.4124 3.58765,8 8,8 4.41236,0 8,-3.5876 8,-8 0,-4.4123 -3.58764,-8 -8,-8 z" style="color:#000;font-style:normal;font-variant:normal;font-weight:400;font-stretch:normal;font-size:medium;line-height:normal;font-family:sans-serif;text-indent:0;text-align:start;text-decoration:none;text-decoration-line:none;text-decoration-style:solid;text-decoration-color:#000;letter-spacing:normal;word-spacing:normal;text-transform:none;direction:ltr;block-progression:tb;writing-mode:lr-tb;baseline-shift:baseline;text-anchor:start;white-space:normal;clip-rule:nonzero;display:inline;overflow:visible;visibility:visible;opacity:1;isolation:auto;mix-blend-mode:normal;color-interpolation:sRGB;color-interpolation-filters:linearRGB;solid-color:#000;solid-opacity:1;fill:#ffc10e;fill-opacity:1;fill-rule:nonzero;stroke:none;stroke-width:.99999994;stroke-linecap:round;stroke-linejoin:round;stroke-miterlimit:4;stroke-dasharray:none;stroke-dashoffset:0;stroke-opacity:1;color-rendering:auto;image-rendering:auto;shape-rendering:auto;text-rendering:auto;enable-background:accumulate"/><path id="path4807" d="m -179.95837,1092.8906 a 4,3.9999826 0 0 1 -2,3.4641 4,3.9999826 0 0 1 -4,0 4,3.9999826 0 0 1 -2,-3.4641" transform="scale(-1,1)" style="color:#000;clip-rule:nonzero;display:inline;overflow:visible;visibility:visible;opacity:1;isolation:auto;mix-blend-mode:normal;color-interpolation:sRGB;color-interpolation-filters:linearRGB;solid-color:#000;solid-opacity:1;fill:#76391f;fill-opacity:1;fill-rule:nonzero;stroke:none;stroke-width:1;stroke-linecap:round;stroke-linejoin:round;stroke-miterlimit:4;stroke-dasharray:none;stroke-dashoffset:0;stroke-opacity:1;color-rendering:auto;image-rendering:auto;shape-rendering:auto;text-rendering:auto;enable-background:accumulate"/><path id="path4809" d="m 179.45117,1090.3965 a 0.50005,0.50005 0 0 1 -0.49219,-0.5059 c 0,-0.7137 0.3819,-1.3755 1,-1.7324 0.61811,-0.3569 1.3819,-0.3569 2,0 0.61811,0.3569 1,1.0187 1,1.7324 a 0.50005,0.50005 0 1 1 -1,0 c 0,-0.358 -0.1899,-0.6881 -0.5,-0.8672 -0.31009,-0.179 -0.6899,-0.179 -1,0 -0.31009,0.1791 -0.5,0.5092 -0.5,0.8672 a 0.50005,0.50005 0 0 1 -0.50781,0.5059 z" style="color:#000;font-style:normal;font-variant:normal;font-weight:400;font-stretch:normal;font-size:medium;line-height:normal;font-family:sans-serif;text-indent:0;text-align:start;text-decoration:none;text-decoration-line:none;text-decoration-style:solid;text-decoration-color:#000;letter-spacing:normal;word-spacing:normal;text-transform:none;direction:ltr;block-progression:tb;writing-mode:lr-tb;baseline-shift:baseline;text-anchor:start;white-space:normal;clip-rule:nonzero;display:inline;overflow:visible;visibility:visible;opacity:1;isolation:auto;mix-blend-mode:normal;color-interpolation:sRGB;color-interpolation-filters:linearRGB;solid-color:#000;solid-opacity:1;fill:#76391f;fill-opacity:1;fill-rule:nonzero;stroke:none;stroke-width:1;stroke-linecap:round;stroke-linejoin:round;stroke-miterlimit:4;stroke-dasharray:none;stroke-dashoffset:0;stroke-opacity:1;color-rendering:auto;image-rendering:auto;shape-rendering:auto;text-rendering:auto;enable-background:accumulate"/><path id="path4811" d="m 185.45117,1090.3965 a 0.50005,0.50005 0 0 1 -0.49219,-0.5059 c 0,-0.7137 0.3819,-1.3755 1,-1.7324 0.61811,-0.3569 1.3819,-0.3569 2,0 0.61811,0.3569 1,1.0187 1,1.7324 a 0.50005,0.50005 0 1 1 -1,0 c 0,-0.358 -0.1899,-0.6881 -0.5,-0.8672 -0.31009,-0.179 -0.6899,-0.179 -1,0 -0.31009,0.1791 -0.5,0.5092 -0.5,0.8672 a 0.50005,0.50005 0 0 1 -0.50781,0.5059 z" style="color:#000;font-style:normal;font-variant:normal;font-weight:400;font-stretch:normal;font-size:medium;line-height:normal;font-family:sans-serif;text-indent:0;text-align:start;text-decoration:none;text-decoration-line:none;text-decoration-style:solid;text-decoration-color:#000;letter-spacing:normal;word-spacing:normal;text-transform:none;direction:ltr;block-progression:tb;writing-mode:lr-tb;baseline-shift:baseline;text-anchor:start;white-space:normal;clip-rule:nonzero;display:inline;overflow:visible;visibility:visible;opacity:1;isolation:auto;mix-blend-mode:normal;color-interpolation:sRGB;color-interpolation-filters:linearRGB;solid-color:#000;solid-opacity:1;fill:#76391f;fill-opacity:1;fill-rule:nonzero;stroke:none;stroke-width:1;stroke-linecap:round;stroke-linejoin:round;stroke-miterlimit:4;stroke-dasharray:none;stroke-dashoffset:0;stroke-opacity:1;color-rendering:auto;image-rendering:auto;shape-rendering:auto;text-rendering:auto;enable-background:accumulate"/></g></g><metadata/></svg>