<svg xmlns="http://www.w3.org/2000/svg" xmlns:svg="http://www.w3.org/2000/svg" id="svg6485" width="16" height="16" version="1.1" viewBox="0 0 16 16"><g id="layer1" transform="translate(0,-1036.3622)"><path style="color:#000;font-style:normal;font-variant:normal;font-weight:400;font-stretch:normal;font-size:medium;line-height:normal;font-family:sans-serif;text-indent:0;text-align:start;text-decoration:none;text-decoration-line:none;text-decoration-style:solid;text-decoration-color:#000;letter-spacing:normal;word-spacing:normal;text-transform:none;direction:ltr;block-progression:tb;writing-mode:lr-tb;baseline-shift:baseline;text-anchor:start;white-space:normal;clip-rule:nonzero;display:inline;overflow:visible;visibility:visible;opacity:1;isolation:auto;mix-blend-mode:normal;color-interpolation:sRGB;color-interpolation-filters:linearRGB;solid-color:#000;solid-opacity:1;fill:#000;fill-opacity:1;fill-rule:nonzero;stroke:none;stroke-width:.99999994;stroke-linecap:round;stroke-linejoin:round;stroke-miterlimit:4;stroke-dasharray:none;stroke-dashoffset:0;stroke-opacity:1;color-rendering:auto;image-rendering:auto;shape-rendering:auto;text-rendering:auto;enable-background:accumulate" id="circle5646" d="M 8 0 C 3.5876443 0 0 3.5877 0 8 C 0 12.4124 3.5876443 16 8 16 C 12.412356 16 16 12.4124 16 8 C 16 3.5877 12.412356 0 8 0 z M 8 1 C 11.871916 1 15 4.1281 15 8 C 15 11.8719 11.871916 15 8 15 C 4.1280844 15 1 11.8719 1 8 C 1 4.1281 4.1280844 1 8 1 z M 5 4.0019531 C 4.654527 4.0019531 4.309054 4.0910813 4 4.2695312 C 3.381892 4.6263313 3 5.2863 3 6 A 0.50005 0.50005 0 0 0 3.4921875 6.5078125 A 0.50005 0.50005 0 0 0 4 6 C 4 5.642 4.1899047 5.3137656 4.5 5.1347656 C 4.8100953 4.9557656 5.1899047 4.9557656 5.5 5.1347656 C 5.8100953 5.3137656 6 5.642 6 6 A 0.50005 0.50005 0 1 0 7 6 C 7 5.2863 6.618108 4.6263313 6 4.2695312 C 5.690946 4.0910813 5.345473 4.0019531 5 4.0019531 z M 11 4.0019531 C 10.654527 4.0019531 10.309054 4.0910813 10 4.2695312 C 9.381892 4.6263313 9 5.2863 9 6 A 0.50005 0.50005 0 0 0 9.4921875 6.5078125 A 0.50005 0.50005 0 0 0 10 6 C 10 5.642 10.189905 5.3137656 10.5 5.1347656 C 10.810095 4.9557656 11.189905 4.9557656 11.5 5.1347656 C 11.810095 5.3137656 12 5.642 12 6 A 0.50005 0.50005 0 1 0 13 6 C 13 5.2863 12.618108 4.6263313 12 4.2695312 C 11.690946 4.0910813 11.345473 4.0019531 11 4.0019531 z M 4 9 A 4 3.9999826 0 0 0 6 12.464844 A 4 3.9999826 0 0 0 10 12.464844 A 4 3.9999826 0 0 0 12 9 L 4 9 z" transform="translate(0,1036.3622)"/></g><metadata/></svg>