<svg xmlns="http://www.w3.org/2000/svg" viewBox="0 0 48 48"><path fill="#9dcc6b" d="M6,1S17,3,22,9s-1,12-6,12S6,16,6,1Z"/><path fill="#b5e08c" d="M19.7,20C15,19.81,10.46,15.18,10,2,25.57,6.88,26.9,16.08,19.7,20Z"/><path fill="#9dcc6b" d="M7,26c2.25-.84,6.09-1.49,8.6-.58C21.58,27.57,15,39.5,7,26Z"/><path fill="#b5e08c" d="M16.76,31.33c-2,.25-4.63-1.19-7.53-5.95a12.19,12.19,0,0,1,6.37,0C18.72,26.54,18.32,29.75,16.76,31.33Z"/><path fill="#9dcc6b" d="M42,18c-5.69,7.82-9.41,8.49-12.3,7.24-4.79-2.1-4.91-7.15-.5-9.37C32.58,14.19,38.84,16.37,42,18Z"/><path fill="#b5e08c" d="M39.37,16.86c-3.5,4.61-7.89,8.91-12.75,5.82-1.37-2.34-.48-5.26,2.58-6.8C32,14.46,36.53,15.75,39.37,16.86Z"/><path fill="#84b749" d="M21,41V24c0-6.44-8.53-13.14-8.61-13.21a1,1,0,0,1,1.22-1.58C14,9.51,23,16.6,23,24V41A1,1,0,0,1,21,41Z"/><path fill="#84b749" d="M21 28.75c0-7 11.3-9.62 11.78-9.73a1 1 0 0 1 .44 2C33.12 21 23 23.37 23 28.75A1 1 0 0 1 21 28.75zM21.29 33.71S17.44 29.91 12.8 29a1 1 0 0 1 .4-2c5.23 1.05 9.34 5.1 9.51 5.27A1 1 0 0 1 21.29 33.71z"/><path fill="#a87e6b" d="M36,47H8C13.47,38.74,30.62,38.93,36,47Z"/><path fill="#be927c" d="M34.28,45H16a1.68,1.68,0,0,1-1-3,22.26,22.26,0,0,1,8-1A16.68,16.68,0,0,1,34.28,45Z"/></svg>