<svg xmlns="http://www.w3.org/2000/svg" data-name="Layer 1" viewBox="0 0 512 512"><path fill="#d88a55" d="M285,406.03V494.5a10.00366,10.00366,0,0,1-10,10H237a10.0037,10.0037,0,0,1-10-10V406.03Z"/><polygon fill="#c57a44" points="285 406.03 285 475.49 227 416.39 227 406.03 285 406.03"/><path fill="#e53950" d="M370.00146,453h-.06054A7.50092,7.50092,0,0,1,362.5,445.44092l.28613-36.436a7.50052,7.50052,0,0,1,7.49854-7.44092h.06054a7.50092,7.50092,0,0,1,7.44092,7.55909l-.28613,36.436A7.50052,7.50052,0,0,1,370.00146,453Z"/><circle cx="370" cy="468" r="22.5" fill="#fed402"/><path fill="#fac600" d="M383.39832,449.9245a22.50023,22.50023,0,0,1-34.79664,25.03265,22.50038,22.50038,0,1,0,34.79664-25.03265Z"/><path fill="#e53950" d="M141.99854,453A7.5002,7.5002,0,0,1,134.5,445.55908l-.28613-36.437a7.50023,7.50023,0,0,1,15-.11816l.28613,36.437A7.50092,7.50092,0,0,1,142.05908,453Z"/><circle cx="142" cy="468" r="22.5" fill="#fed402"/><path fill="#46cc8d" d="M436.67,396.93A819.47523,819.47523,0,0,1,258.5,417.02,820.13126,820.13126,0,0,1,93.74,400.87c-6.41-1.29-12.56-2.62-18.44995-3.95a8.53757,8.53757,0,0,1-4.1-2.15,5.65514,5.65514,0,0,1-.42-.43c0-.01,0-.01-.01-.01a7.54108,7.54108,0,0,1-.69-.94,9.171,9.171,0,0,1-.52-1.04c-.08-.22-.15-.43-.21-.65a.07567.07567,0,0,0-.01-.04c-.04-.18-.08-.37-.11-.56a.21993.21993,0,0,1-.01-.08c-.02-.14-.04-.28-.05-.42a6.60157,6.60157,0,0,1,0-.89,6.22047,6.22047,0,0,1,1.75-3.86l.84-.9L240.5,204.21l8.92-9.55a7.82262,7.82262,0,0,1,.66-.63,9.55466,9.55466,0,0,1,11.84,0,7.83174,7.83174,0,0,1,.66.63L368.61,308.22l10.32,11.05,62.16,66.58C444.78,389.81,442.45,395.62,436.67,396.93Z"/><path fill="#00c27a" d="M436.67,396.93A819.47523,819.47523,0,0,1,258.5,417.02,820.13126,820.13126,0,0,1,93.74,400.87c-6.41-1.29-12.56-2.62-18.44995-3.95a8.53757,8.53757,0,0,1-4.1-2.15,5.65514,5.65514,0,0,1-.42-.43c0-.01,0-.01-.01-.01a7.54108,7.54108,0,0,1-.69-.94,9.171,9.171,0,0,1-.52-1.04c-.08-.22-.15-.43-.21-.65a.07567.07567,0,0,0-.01-.04c-.04-.18-.08-.37-.11-.56a.21993.21993,0,0,1-.01-.08c-.02-.14-.04-.28-.05-.42a6.60157,6.60157,0,0,1,0-.89,617.14415,617.14415,0,0,0,67.78,10.19,576.568,576.568,0,0,0,76.56,2.12c60.36-2.37,124.42-16.24,158.32-24.61a14.91326,14.91326,0,0,0,7.31-24.66l-19.78-21.2-10.5-11.24L240.5,204.21l8.92-9.55a7.82262,7.82262,0,0,1,.66-.63,8.9806,8.9806,0,0,1,11.84,0,7.83174,7.83174,0,0,1,.66.63L368.61,308.22l10.32,11.05,62.16,66.58C444.78,389.81,442.45,395.62,436.67,396.93Z"/><path fill="#f4d902" d="M69.16 389.71a617.14415 617.14415 0 0 0 67.78 10.19q-16.455 1.08006-33.06 1.07-5.07 0-10.14-.1c-6.41-1.29-12.56-2.62-18.44995-3.95a8.53757 8.53757 0 0 1-4.1-2.15 5.65514 5.65514 0 0 1-.42-.43c0-.01 0-.01-.01-.01a7.54108 7.54108 0 0 1-.69-.94 9.171 9.171 0 0 1-.52-1.04c-.08-.22-.15-.43-.21-.65a.07567.07567 0 0 0-.01-.04c-.04-.18-.08-.37-.11-.56a.21993.21993 0 0 1-.01-.08c-.02-.14-.04-.28-.05-.42A6.60157 6.60157 0 0 1 69.16 389.71zM378.93 319.27a7.08756 7.08756 0 0 1-1.04.82q-9.15 5.94-18.54 11.46l-10.5-11.24q10.02-5.805 19.76-12.09z"/><path fill="#46cc8d" d="M409.45,301.52a695.39483,695.39483,0,0,1-151.32,17.06A695.32122,695.32122,0,0,1,102.5,301.51c-4.89-1.11005-6.84-6.05-3.72-9.4l62.83-67.29,88.8-95.11a7.99269,7.99269,0,0,1,11.18,0L350.38,224.82l62.83,67.29C416.35,295.47,414.37,300.41,409.45,301.52Z"/><path fill="#46cc8d" d="M409.45,301.52a704.6362,704.6362,0,0,1-151.32,17.06A695.32122,695.32122,0,0,1,102.5,301.51c-3.89-.88-5.92-4.19-5.01-7.19a5.482,5.482,0,0,1,1.29-2.21l62.83-67.29,7.01-7.51,10.24-10.97,61.64-66.02L250.41,129.71a7.99269,7.99269,0,0,1,11.18,0L350.38,224.82l60.96,65.29h.01l1.86,2C416.35,295.47,414.37,300.41,409.45,301.52Z"/><path fill="#00c27a" d="M409.45,301.52q-7.68,1.74-16.07,3.43a696.5352,696.5352,0,0,1-135.25,13.63A695.32122,695.32122,0,0,1,102.5,301.51c-3.89-.88-5.92-4.19-5.01-7.19a698.084,698.084,0,0,0,115.64,9.26c28.51-.08,64.07-5.82,93.95-11.93,12.54-2.57,24.07-5.2,33.66-7.51,1.26-.3,2.48-.59,3.66-.88a14.50272,14.50272,0,0,0,7.15-23.99l-46.17-49.45-64.88-69.5L250.41,129.71a7.99269,7.99269,0,0,1,11.18,0L350.38,224.82l60.97,65.29,1.86,2C416.35,295.47,414.37,300.41,409.45,301.52Z"/><circle cx="341.794" cy="263.5" r="7.5" fill="#0067c5"/><circle cx="362" cy="369.042" r="7.5" fill="#fed402"/><circle cx="146.433" cy="365.414" r="7.5" fill="#0067c5"/><circle cx="285" cy="376.542" r="22.5" fill="#00c27a"/><circle cx="181.243" cy="262.242" r="7.5" fill="#fed402"/><path fill="#fed402" d="M378.93,319.27a7.08756,7.08756,0,0,1-1.04.82q-9.15,5.94-18.54,11.46A500.89037,500.89037,0,0,1,269.97,373a500.45882,500.45882,0,0,1-133.03,26.9q-16.455,1.08006-33.06,1.07-5.07,0-10.14-.1c-6.41-1.29-12.56-2.62-18.44995-3.95a8.53757,8.53757,0,0,1-4.1-2.15,5.65514,5.65514,0,0,1-.42-.43c0-.01,0-.01-.01-.01a7.54108,7.54108,0,0,1-.69-.94,9.171,9.171,0,0,1-.52-1.04c-.08-.22-.15-.43-.21-.65a.07567.07567,0,0,0-.01-.04c-.04-.18-.08-.37-.11-.56a.21993.21993,0,0,1-.01-.08c-.02-.14-.04-.28-.05-.42a6.60157,6.60157,0,0,1,0-.89,6.22047,6.22047,0,0,1,1.75-3.86l.84-.9c66.52,4.19,131.54-4.59,193.28-26.12a485.25036,485.25036,0,0,0,83.82-38.52q10.02-5.805,19.76-12.09Z"/><path fill="#fac600" d="M378.93,319.27a7.08756,7.08756,0,0,1-1.04.82q-9.15,5.94-18.54,11.46l-10.5-11.24q10.02-5.805,19.76-12.09Z"/><path fill="#f4d902" d="M136.94,399.9q-16.455,1.08006-33.06,1.07-5.07,0-10.14-.1c-6.41-1.29-12.56-2.62-18.44995-3.95a8.53757,8.53757,0,0,1-4.1-2.15,5.65514,5.65514,0,0,1-.42-.43c0-.01,0-.01-.01-.01a7.54108,7.54108,0,0,1-.69-.94,9.171,9.171,0,0,1-.52-1.04c-.08-.22-.15-.43-.21-.65a.07567.07567,0,0,0-.01-.04c-.04-.18-.08-.37-.11-.56a.21993.21993,0,0,1-.01-.08c-.02-.14-.04-.28-.05-.42a6.60157,6.60157,0,0,1,0-.89A617.14415,617.14415,0,0,0,136.94,399.9Z"/><path fill="#fed402" d="M409.45,301.52c-1.2.27-2.42.54-3.64.81q-1.845.405-3.72.81c-.96.21-1.93.41-2.91.62-.55.12-1.1.23-1.65.34-1.37.29-2.75.57-4.15.85h-.01a361.8811,361.8811,0,0,1-86.29-13.3,361.24371,361.24371,0,0,1-41.63-14.49,362.58777,362.58777,0,0,1-96.59-59.64l-.24-.21,10.24-10.97a347.22089,347.22089,0,0,0,92.37,56.97,345.72267,345.72267,0,0,0,69.51,20.83,351.94552,351.94552,0,0,0,70.6,5.97h.01l1.86,2C416.35,295.47,414.37,300.41,409.45,301.52Z"/><path fill="#fac600" d="M413.21,292.11l-1.86-2h-.01a351.94552,351.94552,0,0,1-70.6-5.97c-9.59,2.31-21.12,4.94-33.66,7.51A361.8811,361.8811,0,0,0,393.37,304.95h.01c1.4-.28,2.78-.56,4.15-.85.34637-.06928.69269-.14234,1.03906-.21412q.81309-.16972,1.61762-.34033c.63647-.1344,1.27539-.26819,1.90332-.40552q1.875-.405,3.72-.81c1.22-.27,2.44-.54,3.64-.81C414.37,300.41,416.35,295.47,413.21,292.11Z"/><path fill="#f4d902" d="M134.43 197.67a4.263 4.263 0 0 0-.71 1.02 3.53544 3.53544 0 0 0-.16.34c-.04.12-.09.24-.12.36-.68 2.31.89 4.84 3.89 5.52q6.855 1.56006 14.45 3.06a276.18934 276.18934 0 0 0 32.41-5.52C166.25 201.56 149.6 199.84 134.43 197.67zM287.34 134.23l10.25 10.98q8.58-7.365 16.54-15.49L303.9 118.76a2.61217 2.61217 0 0 0-.25.23Q295.82 126.985 287.34 134.23z"/><circle cx="276.328" cy="369.042" r="22.5" fill="#e53950"/><circle cx="194.053" cy="327.45" r="22.5" fill="#00c27a"/><circle cx="186.413" cy="318.588" r="22.5" fill="#e53950"/><path fill="#fac600" d="M155.39832,449.9245a22.50023,22.50023,0,0,1-34.79664,25.03265,22.50038,22.50038,0,1,0,34.79664-25.03265Z"/><path fill="#46cc8d" d="M374.64,204.92a537.51081,537.51081,0,0,1-117,13.19,538.68137,538.68137,0,0,1-105.86-10.14q-7.59-1.5-14.45-3.06c-3-.68-4.57-3.21-3.89-5.52.03-.12.08-.24.12-.36a3.53544,3.53544,0,0,1,.16-.34,4.263,4.263,0,0,1,.71-1.02l.02-.02,3.28-3.51L240.5,84.06l11.18-11.97a6.17561,6.17561,0,0,1,8.64,0l43.58,46.67,10.23,10.96,63.42,67.93C379.97,200.24,378.44,204.06,374.64,204.92Z"/><path fill="#00c27a" d="M374.64,204.92a537.51081,537.51081,0,0,1-117,13.19,538.68137,538.68137,0,0,1-105.86-10.14q-7.59-1.5-14.45-3.06c-3-.68-4.57-3.21-3.89-5.52.03-.12.08-.24.12-.36a3.53544,3.53544,0,0,1,.16-.34,4.263,4.263,0,0,1,.71-1.02c15.17005,2.17,31.82,3.89,49.76,4.78,9.16.45,18.65.69,28.45.66,28.6-.08,66.39-7.53,91.83-13.41a16.88434,16.88434,0,0,0,8.55-27.97l-15.43-16.52-10.25-10.98L240.5,84.06l11.18-11.97a5.91416,5.91416,0,0,1,8.64,0l43.58,46.67,10.23,10.96,63.42,67.93C379.97,200.24,378.44,204.06,374.64,204.92Z"/><circle cx="309.007" cy="164.869" r="7.5" fill="#fed402"/><circle cx="234.5" cy="136.722" r="7.5" fill="#0067c5"/><path fill="#fed402" d="M314.13,129.72q-7.95,8.115-16.54,15.49a264.194,264.194,0,0,1-38.71,27.68,267.22254,267.22254,0,0,1-74.69,29.56,276.18934,276.18934,0,0,1-32.41,5.52q-7.59-1.5-14.45-3.06c-3-.68-4.57-3.21-3.89-5.52.03-.12.08-.24.12-.36a3.53544,3.53544,0,0,1,.16-.34,4.263,4.263,0,0,1,.71-1.02l.02-.02,3.28-3.51c40.49-2.55,79.66-14.33,113.57-34.19a248.67084,248.67084,0,0,0,36.04-25.72q8.46-7.23,16.31-15.24a2.61217,2.61217,0,0,1,.25-.23Z"/><path fill="#fac600" d="M134.43 197.67a4.263 4.263 0 0 0-.71 1.02 3.53544 3.53544 0 0 0-.16.34c-.04.12-.09.24-.12.36-.68 2.31.89 4.84 3.89 5.52q6.855 1.56006 14.45 3.06a276.18934 276.18934 0 0 0 32.41-5.52C166.25 201.56 149.6 199.84 134.43 197.67zM287.34 134.23l10.25 10.98q8.58-7.365 16.54-15.49L303.9 118.76a2.61217 2.61217 0 0 0-.25.23Q295.82 126.985 287.34 134.23z"/><circle cx="300.735" cy="230.47" r="22.5" fill="#00c27a"/><circle cx="294.064" cy="220.148" r="22.5" fill="#e53950"/><path fill="#fac600" d="M259.60507,9.741l9.88511,20.02944a4.02025,4.02025,0,0,0,3.027,2.19922l22.10379,3.21186a4.02021,4.02021,0,0,1,2.22806,6.85725L280.85454,57.62951a4.02024,4.02024,0,0,0-1.1562,3.55841l3.77578,22.01448a4.02021,4.02021,0,0,1-5.83312,4.238L257.87077,77.04659a4.0202,4.0202,0,0,0-3.74154,0L234.359,87.44041a4.02021,4.02021,0,0,1-5.83312-4.238l3.77578-22.01448a4.02024,4.02024,0,0,0-1.1562-3.55841L215.151,42.03877a4.02021,4.02021,0,0,1,2.22806-6.85725l22.10379-3.21186a4.02025,4.02025,0,0,0,3.027-2.19922L252.39493,9.741A4.02022,4.02022,0,0,1,259.60507,9.741Z"/><path fill="#ca2e43" d="M280.30572 346.90012A22.48857 22.48857 0 0 1 259.252 383.68478a22.49656 22.49656 0 1 0 21.05371-36.78466zM297.98444 197.82724a22.48857 22.48857 0 0 1-21.05371 36.78467 22.49656 22.49656 0 1 0 21.05371-36.78467zM190.39045 296.44536A22.48857 22.48857 0 0 1 169.33674 333.23a22.49656 22.49656 0 1 0 21.05371-36.78467z"/><path fill="#fed402" d="M230.24585,73.17426c1.09405.08642,2.19641.14343,3.31268.14343A41.52169,41.52169,0,0,0,275.073,32.34106l-2.55585-.37139a4.0205,4.0205,0,0,1-3.027-2.19922L259.6051,9.741a4.02023,4.02023,0,0,0-7.21014,0l-9.88513,20.02948a4.02028,4.02028,0,0,1-3.027,2.19922l-22.10376,3.21185a4.0202,4.0202,0,0,0-2.22809,6.85724l15.99445,15.59076a4.02034,4.02034,0,0,1,1.15625,3.55841Z"/></svg>